ply
format ascii 1.0
element vertex 166
property float x
property float y
property float z
element face 279
property list uchar int vertex_index
end_header
1.45833 0.25 1.45833
1.29167 0.25 1.29167
1.45833 0.75 1.45833
1.29167 0.75 1.29167
1.41667 0.25 1.75
1.08333 0.25 1.75
1.41667 0.75 1.75
1.08333 0.75 1.75
1.28333 1.28333 1.45
1.21667 1.21667 1.25
1.20833 1.20833 1.75
1.04167 1.04167 1.75
1.41667 0.25 2.25
1.08333 0.25 2.25
1.41667 0.75 2.25
1.08333 0.75 2.25
1.20833 1.20833 2.25
1.04167 1.04167 2.25
1.45833 0.25 2.54167
1.29167 0.25 2.70833
1.45833 0.75 2.54167
1.29167 0.75 2.70833
1.28333 1.28333 2.55
1.21667 1.21667 2.75
0.25 1.45833 1.45833
0.25 1.29167 1.29167
0.25 1.41667 1.75
0.25 1.08333 1.75
0.75 1.45833 1.45833
0.75 1.29167 1.29167
0.75 1.41667 1.75
0.75 1.08333 1.75
0.25 1.41667 2.25
0.25 1.08333 2.25
0.75 1.41667 2.25
0.75 1.08333 2.25
0.25 1.45833 2.54167
0.25 1.29167 2.70833
0.75 1.45833 2.54167
0.75 1.29167 2.70833
1.75 0.25 1.41667
1.75 0.25 1.08333
1.75 0.75 1.41667
1.75 0.75 1.08333
1.75 0.25 2.58333
1.75 0.25 2.91667
1.75 0.75 2.58333
1.75 0.75 2.91667
2.25 0.25 1.41667
2.25 0.25 1.08333
2.25 0.75 1.41667
2.25 0.75 1.08333
2.25 0.25 2.58333
2.25 0.25 2.91667
2.25 0.75 2.58333
2.25 0.75 2.91667
2.75 0.25 1.41667
2.75 0.25 1.08333
2.75 0.75 1.41667
2.75 0.75 1.08333
2.75 0.25 2.58333
2.75 0.25 2.91667
2.75 0.75 2.58333
2.75 0.75 2.91667
1.75 1.25 1.41667
1.75 1.25 1.08333
1.75 1.25 2.58333
1.75 1.25 2.91667
2.25 1.25 1.41667
2.25 1.25 1.08333
2.25 1.25 2.58333
2.25 1.25 2.91667
2.75 1.25 1.41667
2.75 1.25 1.08333
2.75 1.25 2.58333
2.75 1.25 2.91667
0.25 1.75 1.41667
0.25 1.75 1.08333
0.75 1.75 1.41667
0.75 1.75 1.08333
0.25 1.75 2.58333
0.25 1.75 2.91667
0.75 1.75 2.58333
0.75 1.75 2.91667
1.25 1.75 1.41667
1.25 1.75 1.08333
1.25 1.75 2.58333
1.25 1.75 2.91667
1.79167 1.79167 1.41667
1.75 1.75 1.09375
1.79167 1.79167 2.58333
1.75 1.75 2.90625
2.25 1.75 1.38889
2.25 1.75 1.10417
2.25 1.75 2.61111
2.25 1.75 2.89583
2.75 1.75 1.38889
2.75 1.75 1.10417
2.75 1.75 2.61111
2.75 1.75 2.89583
0.25 2.25 1.41667
0.25 2.25 1.08333
0.75 2.25 1.41667
0.75 2.25 1.08333
0.25 2.25 2.58333
0.25 2.25 2.91667
0.75 2.25 2.58333
0.75 2.25 2.91667
1.25 2.25 1.41667
1.25 2.25 1.08333
1.25 2.25 2.58333
1.25 2.25 2.91667
1.75 2.25 1.38889
1.75 2.25 1.10417
1.75 2.25 2.61111
1.75 2.25 2.89583
2.25 2.25 1.3125
2.25 2.25 1.125
2.25 2.25 2.6875
2.25 2.25 2.875
2.75 2.25 1.3125
2.75 2.25 1.125
2.75 2.25 2.6875
2.75 2.25 2.875
0.25 2.75 1.41667
0.25 2.75 1.08333
0.75 2.75 1.41667
0.75 2.75 1.08333
0.25 2.75 2.58333
0.25 2.75 2.91667
0.75 2.75 2.58333
0.75 2.75 2.91667
1.25 2.75 1.41667
1.25 2.75 1.08333
1.25 2.75 2.58333
1.25 2.75 2.91667
1.75 2.75 1.38889
1.75 2.75 1.10417
1.75 2.75 2.61111
1.75 2.75 2.89583
2.25 2.75 1.3125
2.25 2.75 1.125
2.25 2.75 2.6875
2.25 2.75 2.875
2.75 2.75 1.3125
2.75 2.75 1.125
2.75 2.75 2.6875
2.75 2.75 2.875
1.875 1.875 1.75
2.25 1.75 1.75
1.75 2.25 1.75
2.25 2.25 1.75
2.75 1.75 1.75
2.75 2.25 1.75
1.75 2.75 1.75
2.25 2.75 1.75
2.75 2.75 1.75
1.875 1.875 2.25
2.25 1.75 2.25
1.75 2.25 2.25
2.25 2.25 2.25
2.75 1.75 2.25
2.75 2.25 2.25
1.75 2.75 2.25
2.25 2.75 2.25
2.75 2.75 2.25
4 1 5 4 0
4 1 0 2 3
4 1 3 7 5
4 2 6 7 3
4 7 6 4 5
4 4 6 2 0
4 3 2 8 9
4 3 9 11 7
4 8 10 11 9
4 11 10 6 7
4 6 10 8 2
4 5 13 12 4
4 5 7 15 13
4 6 14 15 7
4 15 14 12 13
4 12 14 6 4
4 7 11 17 15
4 10 16 17 11
4 17 16 14 15
4 14 16 10 6
4 13 19 18 12
4 13 15 21 19
4 14 20 21 15
4 21 20 18 19
4 18 20 14 12
4 15 17 23 21
4 16 22 23 17
4 23 22 20 21
4 20 22 16 14
4 25 29 28 24
4 25 24 26 27
4 25 27 31 29
4 26 30 31 27
4 31 30 28 29
4 28 30 26 24
4 29 9 8 28
4 29 31 11 9
4 30 10 11 31
4 8 10 30 28
4 27 26 32 33
4 27 33 35 31
4 32 34 35 33
4 35 34 30 31
4 30 34 32 26
4 31 35 17 11
4 34 16 17 35
4 10 16 34 30
4 33 32 36 37
4 33 37 39 35
4 36 38 39 37
4 39 38 34 35
4 34 38 36 32
4 35 39 23 17
4 38 22 23 39
4 16 22 38 34
4 1 0 40 41
4 1 41 43 3
4 40 42 43 41
4 43 42 2 3
4 2 42 40 0
4 19 18 44 45
4 19 45 47 21
4 44 46 47 45
4 47 46 20 21
4 20 46 44 18
4 41 40 48 49
4 41 49 51 43
4 48 50 51 49
4 51 50 42 43
4 42 50 48 40
4 45 44 52 53
4 45 53 55 47
4 52 54 55 53
4 55 54 46 47
4 46 54 52 44
4 49 48 56 57
4 49 57 59 51
4 56 58 59 57
4 59 58 50 51
4 50 58 56 48
4 53 52 60 61
4 53 61 63 55
4 60 62 63 61
4 63 62 54 55
4 54 62 60 52
4 3 43 65 9
4 42 64 65 43
4 65 64 8 9
4 8 64 42 2
4 21 47 67 23
4 46 66 67 47
4 67 66 22 23
4 22 66 46 20
4 43 51 69 65
4 50 68 69 51
4 69 68 64 65
4 64 68 50 42
4 47 55 71 67
4 54 70 71 55
4 71 70 66 67
4 66 70 54 46
4 51 59 73 69
4 58 72 73 59
4 73 72 68 69
4 68 72 58 50
4 55 63 75 71
4 62 74 75 63
4 75 74 70 71
4 70 74 62 54
4 25 77 76 24
4 25 29 79 77
4 28 78 79 29
4 79 78 76 77
4 76 78 28 24
4 37 81 80 36
4 37 39 83 81
4 38 82 83 39
4 83 82 80 81
4 80 82 38 36
4 29 9 85 79
4 8 84 85 9
4 85 84 78 79
4 78 84 8 28
4 39 23 87 83
4 22 86 87 23
4 87 86 82 83
4 82 86 22 38
4 9 65 89 85
4 64 88 89 65
4 89 88 84 85
4 84 88 64 8
4 23 67 91 87
4 66 90 91 67
4 91 90 86 87
4 86 90 66 22
4 65 69 93 89
4 68 92 93 69
4 93 92 88 89
4 88 92 68 64
4 67 71 95 91
4 70 94 95 71
4 95 94 90 91
4 90 94 70 66
4 69 73 97 93
4 72 96 97 73
4 97 96 92 93
4 92 96 72 68
4 71 75 99 95
4 74 98 99 75
4 99 98 94 95
4 94 98 74 70
4 77 101 100 76
4 77 79 103 101
4 78 102 103 79
4 103 102 100 101
4 100 102 78 76
4 81 105 104 80
4 81 83 107 105
4 82 106 107 83
4 107 106 104 105
4 104 106 82 80
4 79 85 109 103
4 84 108 109 85
4 109 108 102 103
4 102 108 84 78
4 83 87 111 107
4 86 110 111 87
4 111 110 106 107
4 106 110 86 82
4 85 89 113 109
4 88 112 113 89
4 113 112 108 109
4 108 112 88 84
4 87 91 115 111
4 90 114 115 91
4 115 114 110 111
4 110 114 90 86
4 89 93 117 113
4 92 116 117 93
4 117 116 112 113
4 112 116 92 88
4 91 95 119 115
4 94 118 119 95
4 119 118 114 115
4 114 118 94 90
4 93 97 121 117
4 96 120 121 97
4 121 120 116 117
4 116 120 96 92
4 95 99 123 119
4 98 122 123 99
4 123 122 118 119
4 118 122 98 94
4 101 125 124 100
4 101 103 127 125
4 102 126 127 103
4 127 126 124 125
4 124 126 102 100
4 105 129 128 104
4 105 107 131 129
4 106 130 131 107
4 131 130 128 129
4 128 130 106 104
4 103 109 133 127
4 108 132 133 109
4 133 132 126 127
4 126 132 108 102
4 107 111 135 131
4 110 134 135 111
4 135 134 130 131
4 130 134 110 106
4 109 113 137 133
4 112 136 137 113
4 137 136 132 133
4 132 136 112 108
4 111 115 139 135
4 114 138 139 115
4 139 138 134 135
4 134 138 114 110
4 113 117 141 137
4 116 140 141 117
4 141 140 136 137
4 136 140 116 112
4 115 119 143 139
4 118 142 143 119
4 143 142 138 139
4 138 142 118 114
4 117 121 145 141
4 120 144 145 121
4 145 144 140 141
4 140 144 120 116
4 119 123 147 143
4 122 146 147 123
4 147 146 142 143
4 142 146 122 118
4 88 112 150 148
4 88 148 149 92
4 149 151 116 92
4 116 151 150 112
4 150 151 149 148
4 92 149 152 96
4 152 153 120 96
4 120 153 151 116
4 151 153 152 149
4 112 136 154 150
4 151 155 140 116
4 140 155 154 136
4 154 155 151 150
4 153 156 144 120
4 144 156 155 140
4 155 156 153 151
4 148 150 159 157
4 148 157 158 149
4 158 160 151 149
4 151 160 159 150
4 159 160 158 157
4 149 158 161 152
4 161 162 153 152
4 153 162 160 151
4 160 162 161 158
4 150 154 163 159
4 160 164 155 151
4 155 164 163 154
4 163 164 160 159
4 162 165 156 153
4 156 165 164 155
4 164 165 162 160
4 157 159 114 90
4 157 90 94 158
4 94 118 160 158
4 160 118 114 159
4 158 94 98 161
4 98 122 162 161
4 162 122 118 160
4 159 163 138 114
4 118 142 164 160
4 164 142 138 163
4 122 146 165 162
4 165 146 142 164
