ply
format ascii 1.0
element vertex 72
property float x
property float y
property float z
element face 106
property list uchar int vertex_index
end_header
1.79167 0.25 1.79167
1.95833 0.25 1.95833
1.79167 0.75 1.79167
1.95833 0.75 1.95833
1.79167 0.25 2.20833
1.95833 0.25 2.04167
1.79167 0.75 2.20833
1.95833 0.75 2.04167
1.86111 1.13889 1.86111
1.97222 1.02778 1.97222
1.86111 1.13889 2.13889
1.97222 1.02778 2.02778
1.13889 1.86111 1.86111
1.02778 1.97222 1.97222
1.20833 2.25 1.79167
1.04167 2.25 1.95833
1.13889 1.86111 2.13889
1.02778 1.97222 2.02778
1.20833 2.25 2.20833
1.04167 2.25 2.04167
1.20833 2.75 1.79167
1.04167 2.75 1.95833
1.20833 2.75 2.20833
1.04167 2.75 2.04167
0.25 1.79167 1.79167
0.25 1.95833 1.95833
0.25 1.79167 2.20833
0.25 1.95833 2.04167
0.75 1.79167 1.79167
0.75 1.95833 1.95833
0.75 1.79167 2.20833
0.75 1.95833 2.04167
2.25 1.20833 1.79167
2.25 1.04167 1.95833
2.25 1.20833 2.20833
2.25 1.04167 2.04167
2.75 1.20833 1.79167
2.75 1.04167 1.95833
2.75 1.20833 2.20833
2.75 1.04167 2.04167
2.25 0.25 1.58333
2.25 0.25 1.91667
2.25 0.75 1.58333
2.25 0.75 1.91667
2.25 0.25 2.41667
2.25 0.25 2.08333
2.25 0.75 2.41667
2.25 0.75 2.08333
2.75 0.25 1.58333
2.75 0.25 1.91667
2.75 0.75 1.58333
2.75 0.75 1.91667
2.75 0.25 2.41667
2.75 0.25 2.08333
2.75 0.75 2.41667
2.75 0.75 2.08333
0.25 2.25 1.58333
0.25 2.25 1.91667
0.75 2.25 1.58333
0.75 2.25 1.91667
0.25 2.25 2.41667
0.25 2.25 2.08333
0.75 2.25 2.41667
0.75 2.25 2.08333
0.25 2.75 1.58333
0.25 2.75 1.91667
0.75 2.75 1.58333
0.75 2.75 1.91667
0.25 2.75 2.41667
0.25 2.75 2.08333
0.75 2.75 2.41667
0.75 2.75 2.08333
4 1 5 4 0
4 1 0 2 3
4 1 3 7 5
4 2 6 7 3
4 7 6 4 5
4 4 6 2 0
4 3 2 8 9
4 3 9 11 7
4 8 10 11 9
4 11 10 6 7
4 6 10 8 2
4 13 17 16 12
4 13 12 14 15
4 13 15 19 17
4 14 18 19 15
4 19 18 16 17
4 16 18 14 12
4 15 14 20 21
4 15 21 23 19
4 20 22 23 21
4 23 22 18 19
4 18 22 20 14
4 25 29 28 24
4 25 24 26 27
4 25 27 31 29
4 26 30 31 27
4 31 30 28 29
4 28 30 26 24
4 29 13 12 28
4 29 31 17 13
4 30 16 17 31
4 12 16 30 28
4 9 33 32 8
4 9 11 35 33
4 10 34 35 11
4 35 34 32 33
4 32 34 10 8
4 33 37 36 32
4 33 35 39 37
4 34 38 39 35
4 39 38 36 37
4 36 38 34 32
4 1 0 40 41
4 1 41 43 3
4 40 42 43 41
4 43 42 2 3
4 2 42 40 0
4 5 4 44 45
4 5 45 47 7
4 44 46 47 45
4 47 46 6 7
4 6 46 44 4
4 41 40 48 49
4 41 49 51 43
4 48 50 51 49
4 51 50 42 43
4 42 50 48 40
4 45 44 52 53
4 45 53 55 47
4 52 54 55 53
4 55 54 46 47
4 46 54 52 44
4 3 43 33 9
4 42 32 33 43
4 8 32 42 2
4 7 47 35 11
4 46 34 35 47
4 10 34 46 6
4 43 51 37 33
4 50 36 37 51
4 32 36 50 42
4 47 55 39 35
4 54 38 39 55
4 34 38 54 46
4 25 57 56 24
4 25 29 59 57
4 28 58 59 29
4 59 58 56 57
4 56 58 28 24
4 27 61 60 26
4 27 31 63 61
4 30 62 63 31
4 63 62 60 61
4 60 62 30 26
4 29 13 15 59
4 15 14 58 59
4 58 14 12 28
4 31 17 19 63
4 19 18 62 63
4 62 18 16 30
4 57 65 64 56
4 57 59 67 65
4 58 66 67 59
4 67 66 64 65
4 64 66 58 56
4 61 69 68 60
4 61 63 71 69
4 62 70 71 63
4 71 70 68 69
4 68 70 62 60
4 59 15 21 67
4 21 20 66 67
4 66 20 14 58
4 63 19 23 71
4 23 22 70 71
4 70 22 18 62
