ply
format ascii 1.0
element vertex 314
property float x
property float y
property float z
element face 595
property list uchar int vertex_index
end_header
1.3125 0.5 0.6875
1.15 0.5 0.85
1.5 1.25 0.5
1.16667 1.83333 0.916667
1.38889 1.58333 0.527778
1.35 0.5 1.5
1.17857 0.428571 1.42857
1.5 1.5 1.5
1.16667 1.83333 1.16667
1.36111 1.63889 1.36111
2.375 0.5 0.5
2.75 0.5 0.5
2.1875 1.25 0.5
2.83333 1.91667 0.916667
2.625 1.475 0.475
2.55 0.45 1.55
2.85 0.55 1.45
2.2 1.5 1.5
2.83333 1.91667 1.16667
2.61111 1.58333 1.44444
4.25 0.5 0.125
4.875 0.5 0.75
4.4375 0.5 0.5625
4.16667 1.08333 0.0833333
4.58333 1.54167 0.541667
4.33333 1.38889 0.388889
4.6875 0.5 1.5
4.20833 0.416667 1.58333
4.57143 1.57143 1.64286
4.42857 1.42857 1.64286
0.833333 1.08333 0.166667
0.833333 1.83333 0.916667
0.625 1.59375 0.40625
0.833333 2.08333 0.916667
0.5 2.25 0.75
0.5 2.75 0.25
0.833333 1.83333 1.16667
0.5 1.25 1.75
0.607143 1.53571 1.46429
0.833333 2.08333 1.16667
0.571429 2.53571 1.42857
1.16667 2.08333 0.916667
1.91667 2.83333 0.916667
1.53125 2.46875 0.5625
1.16667 2.83333 0.166667
1.16667 2.08333 1.16667
1.91667 2.83333 1.16667
1.83333 2.16667 1.83333
1.52273 2.47727 1.5
2.83333 2.16667 0.916667
2.16667 2.83333 0.916667
2.5 2.5 0.45
2.83333 2.16667 1.16667
2.16667 2.83333 1.16667
2.16667 2.16667 1.83333
2.5 2.5 1.5
1.16667 3.83333 0.0833333
1.875 3.5 0.8125
1.45 3.5 0.4
1.8 3.5 1.5
1.4375 3.5 1.625
2.25 3.5 0.8125
2.25 3.41667 0.458333
2.5 3.54167 1.5
2.5625 3.34375 1.5625
3.5 2.5 0.8
3.5 2.5 0.428571
3.75 3.5 0.75
3.625 3.5 0.625
3.35 2.5 1.5
3.17857 2.57143 1.57143
3.35 3.55 1.5
3.20833 3.375 1.5
0.916667 3.83333 0.0833333
0.0833333 3.91667 0.916667
0.541667 3.5 0.291667
0.25 3.75 0.75
0.8125 4.5 0.125
0.125 4.5 0.8125
0.472222 4.5 0.472222
0.0833333 3.91667 1.16667
0.464286 3.53571 1.5
0.125 4.5 1.1875
0.5 4.42857 1.53571
1.1875 4.5 0.125
1.91667 4.16667 0.833333
1.6 4.5 0.55
1.8 4.5 1.5
1.4375 4.5 1.5
2.16667 4.16667 0.833333
2.35714 4.5 0.5
2.45833 4.45833 1.5
2.60714 4.60714 1.5
3.83333 4.08333 0.833333
3.5625 4.65625 0.5625
3.5 4.15 1.5
3.42857 4.60714 1.42857
4.5 3.5 0.7
4.625 3.625 0.5
4.16667 4.08333 0.833333
4.44444 4.52778 0.555556
4.7 3.5 1.5
4.85 3.55 1.55
4.25 4.125 1.5
4.33333 4.58333 1.5
2.45833 0.458333 2.5
2.83333 0.833333 2.91667
2.63889 0.638889 2.58333
2.46429 1.35714 2.53571
2.59375 1.375 2.40625
4.75 0.55 2.45
4.46875 0.46875 2.53125
4.53571 1.53571 2.35714
4.40625 1.40625 2.375
1.5 1.5 2.45833
1.4375 1.4375 2.65625
1.75 2.1875 2.5
1.5625 2.53125 2.4375
2.54167 2.45833 2.54167
2.47222 2.63889 2.36111
3.5 1.85 1.5
3.41667 1.54167 1.58333
3.5 1.54167 2.54167
3.5 1.40625 2.40625
3.3125 2.5 2.3125
3.15 2.5 2.15
4.75 2.5 1.75
4.875 2.5 1.875
4.65 2.45 2.5
4.79167 2.625 2.5
3.25 3.5 2.5
3.08333 3.5 2.5
4.65 3.55 2.5
4.79167 3.375 2.5
1.5 3.8 2.5
1.5 3.4375 2.375
1.5 4.60714 2.5
1.4375 4.65625 2.4375
4.54167 4.41667 2.5
4.46429 4.64286 2.42857
2.25 0.1875 3.5
2.83333 0.833333 3.08333
2.5 0.583333 3.47222
2.5 1.54167 3.45833
2.375 1.40625 3.59375
3.16667 0.0833333 2.16667
3.16667 0.833333 2.91667
3.375 0.59375 2.40625
3.16667 0.833333 3.08333
3.8125 0.5 3.75
3.40625 0.625 3.59375
3.45833 1.54167 3.41667
3.91667 1.08333 3.83333
3.61111 1.38889 3.66667
4.83333 0.916667 3.16667
4.25 0.5 3.75
4.55556 0.472222 3.44444
4.5 1.5 3.2
4.16667 1.08333 3.83333
4.44444 1.41667 3.61111
1.83333 1.83333 3.16667
1.16667 1.91667 3.83333
1.55 1.575 3.45
1.83333 2.08333 3.16667
1.16667 2.16667 3.83333
1.45 2.425 3.55
0.0833333 2.91667 2.83333
0.46875 2.53125 2.625
0.0833333 3.16667 2.83333
0.833333 3.91667 2.83333
0.59375 3.40625 2.625
0.0833333 2.91667 3.08333
0.916667 2.16667 3.83333
0.25 2.75 3.25
0.75 2.42857 3.57143
0.0833333 3.16667 3.08333
0.75 3.8125 3.5
0.525 3.375 3.525
2.45 3.8 2.45
2.91667 3.08333 2.91667
2.46429 3.42857 2.46429
2.75 3.25 2.75
2.4 2.45 3.5
2.16667 2.54167 3.58333
2.8 3.45 3.55
2.08333 3.91667 3.16667
2.41667 3.61111 3.41667
4.45 2.45 3.2
4.83333 2.91667 3.91667
4.58333 2.61111 3.58333
4.5 3.39286 3.5
4.4375 3.34375 3.5625
0.8125 4.5 2.8125
0.535714 4.5 2.53571
0.75 4.45 3.45
0.0833333 4.83333 3.91667
0.444444 4.63889 3.55556
2.41667 4.41667 2.41667
2.58333 4.58333 2.58333
2.08333 4.08333 3.16667
2.83333 4.16667 3.91667
2.16667 4.83333 3.91667
2.475 4.475 3.55
3.55 4.15 2.45
3.45 4.45 2.55
3.5 3.60714 3.5
3.5625 3.65625 3.5625
3.91667 4.08333 3.08333
3.08333 4.16667 3.91667
3.83333 4.91667 3.91667
3.75 4.25 3.25
3.46429 4.53571 3.71429
3.5 0.392857 4.5
3.4375 0.34375 4.4375
3.55 1.25 4.55
3.08333 1.91667 4.16667
3.44444 1.55556 4.36111
4.3 0.55 4.45
4.33333 0.375 4.625
4.25 1.1875 4.5
4.4375 1.53125 4.5625
0.916667 1.91667 3.83333
0.75 1.75 3.5
0.166667 1.16667 3.83333
0.8 1.55 4.55
0.4375 1.40625 4.40625
0.85 2.5 4.5
0.541667 2.58333 4.41667
1.25 1.55 4.55
1.53571 1.46429 4.46429
1.5 2.5 4.54167
1.5625 2.5625 4.34375
2.83333 1.91667 4.16667
2.91667 1.16667 4.91667
2.59375 1.46875 4.46875
2.8125 2.5 4.25
2.16667 2.83333 4.91667
2.40625 2.625 4.40625
3.6875 2.5 3.6875
3.85 2.5 3.85
3.1875 2.5 4.25
3.83333 2.83333 4.83333
3.63889 2.55556 4.44444
2.8125 3.5 4.25
2.16667 3.08333 4.91667
2.375 3.525 4.475
3.1875 3.5 4.25
3.83333 3.08333 4.83333
3.58333 3.47222 4.5
4.5 2.8 4.5
4.375 2.4375 4.5
4.4 3.45 4.5
4.16667 3.54167 4.41667
0.833333 3.83333 4.16667
0.916667 3.16667 4.83333
0.575 3.55 4.45
0.833333 4.08333 4.16667
0.0833333 4.83333 4.16667
0.477273 4.47727 4.5
1.5 3.8 3.5
1.5 3.4375 3.625
1.45833 4.41667 3.45833
1.91667 4.83333 3.91667
1.61111 4.66667 3.61111
1.16667 3.83333 4.16667
1.5 3.1875 4.8125
1.5 3.56818 4.43182
1.16667 4.08333 4.16667
1.91667 4.83333 4.16667
1.52273 4.47727 4.5
2.83333 4.16667 4.16667
2.16667 4.83333 4.16667
2.83333 4.83333 4.83333
2.5 4.5 4.5
3.08333 4.16667 4.16667
3.83333 4.91667 4.08333
3.08333 4.83333 4.83333
3.45 4.525 4.475
4.25 4.5 3.5
4.08333 4.5 3.5
4.58333 4.5 4.41667
4.41667 4.5 4.58333
3.83333 1.08333 0.0833333
3.5 1.875 0.875
3.5 1.25 0.25
3.5 1.625 0.625
0.5 0.8125 1.75
0.5625 0.46875 1.5625
0.5 0.8125 2.125
0.916667 0.0833333 2.83333
0.59375 0.4375 2.5
1.35714 0.464286 2.46429
1.375 0.59375 2.59375
0.5 1.25 2.125
0.5 1.5 2.57143
3.16667 0.0833333 1.91667
3.5 0.25 1.75
0.916667 0.0833333 3.08333
0.75 0.25 3.25
0.166667 0.833333 3.83333
1.55 0.2 3.45
1.53571 0.571429 3.46429
1.5 0.416667 4.58333
1.5 0.583333 4.41667
2.54167 0.416667 4.54167
2.53571 0.571429 4.39286
0.5 0.5 0.2
0.5 0.5 0.571429
0.8125 0.5 4.875
0.464286 0.571429 4.5
3.75 0.5 0.125
3.5 0.5 0.416667
4.55 2.5 0.35
4.375 2.5 0.208333
4 0 5 6 1
4 0 1 4 2
4 0 2 7 5
4 4 9 7 2
4 7 9 6 5
4 6 9 4 1
4 10 15 16 11
4 10 11 14 12
4 10 12 17 15
4 14 19 17 12
4 17 19 16 15
4 16 19 14 11
4 21 26 27 22
4 21 22 25 24
4 21 24 28 26
4 25 29 28 24
4 28 29 27 26
4 27 29 25 22
4 31 36 38 32
4 31 32 34 33
4 31 33 39 36
4 34 40 39 33
4 39 40 38 36
4 38 40 34 32
4 3 8 9 4
4 3 4 43 41
4 3 41 45 8
4 43 48 45 41
4 45 48 9 8
4 9 48 43 4
4 13 18 19 14
4 13 14 51 49
4 13 49 52 18
4 51 55 52 49
4 52 55 19 18
4 19 55 51 14
4 42 46 48 43
4 42 43 58 57
4 42 57 59 46
4 58 60 59 57
4 59 60 48 46
4 48 60 58 43
4 50 53 55 51
4 50 51 62 61
4 50 61 63 53
4 62 64 63 61
4 63 64 55 53
4 55 64 62 51
4 65 69 70 66
4 65 66 68 67
4 65 67 71 69
4 68 72 71 67
4 71 72 70 69
4 70 72 68 66
4 74 80 81 76
4 74 76 79 78
4 74 78 82 80
4 79 83 82 78
4 82 83 81 80
4 81 83 79 76
4 57 58 86 85
4 57 85 87 59
4 86 88 87 85
4 87 88 60 59
4 60 88 86 58
4 61 62 90 89
4 61 89 91 63
4 90 92 91 89
4 91 92 64 63
4 64 92 90 62
4 67 68 94 93
4 67 93 95 71
4 94 96 95 93
4 95 96 72 71
4 72 96 94 68
4 97 101 102 98
4 97 98 100 99
4 97 99 103 101
4 100 104 103 99
4 103 104 102 101
4 102 104 100 98
4 15 105 107 16
4 15 17 108 105
4 19 109 108 17
4 108 109 107 105
4 107 109 19 16
4 26 110 111 27
4 26 28 112 110
4 29 113 112 28
4 112 113 111 110
4 111 113 29 27
4 7 114 115 9
4 7 9 48 47
4 7 47 116 114
4 48 117 116 47
4 116 117 115 114
4 115 117 48 9
4 17 19 55 54
4 17 54 118 108
4 55 119 118 54
4 118 119 109 108
4 109 119 55 19
4 120 122 123 121
4 120 121 70 69
4 120 69 124 122
4 70 125 124 69
4 124 125 123 122
4 123 125 70 121
4 28 29 127 126
4 28 126 128 112
4 127 129 128 126
4 128 129 113 112
4 113 129 127 29
4 69 71 130 124
4 72 131 130 71
4 130 131 125 124
4 125 131 72 70
4 126 127 102 101
4 126 101 132 128
4 102 133 132 101
4 132 133 129 128
4 129 133 102 127
4 59 134 135 60
4 59 87 136 134
4 88 137 136 87
4 136 137 135 134
4 135 137 88 60
4 101 103 138 132
4 104 139 138 103
4 138 139 133 132
4 133 139 104 102
4 106 141 142 107
4 106 107 109 108
4 106 108 143 141
4 109 144 143 108
4 143 144 142 141
4 142 144 109 107
4 146 148 150 147
4 146 147 123 122
4 146 122 151 148
4 123 153 151 122
4 151 153 150 148
4 150 153 123 147
4 110 154 156 111
4 110 112 157 154
4 113 159 157 112
4 157 159 156 154
4 156 159 113 111
4 114 160 162 115
4 114 116 163 160
4 117 165 163 116
4 163 165 162 160
4 162 165 117 115
4 166 171 173 167
4 166 167 170 168
4 166 168 175 171
4 170 177 175 168
4 175 177 173 171
4 173 177 170 167
4 118 182 183 119
4 118 119 181 179
4 118 179 184 182
4 181 186 184 179
4 184 186 183 182
4 183 186 181 119
4 128 187 189 129
4 128 132 190 187
4 133 191 190 132
4 190 191 189 187
4 189 191 133 129
4 169 176 177 170
4 169 170 193 192
4 169 192 194 176
4 193 196 194 192
4 194 196 177 176
4 177 196 193 170
4 178 185 186 180
4 178 180 198 197
4 178 197 199 185
4 198 202 199 197
4 199 202 186 185
4 186 202 198 180
4 130 205 206 131
4 130 131 204 203
4 130 203 207 205
4 204 210 207 203
4 207 210 206 205
4 206 210 204 131
4 149 212 213 150
4 149 150 153 152
4 149 152 214 212
4 153 216 214 152
4 214 216 213 212
4 213 216 153 150
4 155 217 218 156
4 155 156 159 158
4 155 158 219 217
4 159 220 219 158
4 219 220 218 217
4 218 220 159 156
4 221 224 225 222
4 221 222 174 172
4 221 172 226 224
4 174 227 226 172
4 226 227 225 224
4 225 227 174 222
4 161 228 229 162
4 161 162 165 164
4 161 164 230 228
4 165 231 230 164
4 230 231 229 228
4 229 231 165 162
4 143 232 234 144
4 143 144 183 182
4 143 182 235 232
4 183 237 235 182
4 235 237 234 232
4 234 237 183 144
4 151 215 216 153
4 151 153 239 238
4 151 238 240 215
4 239 242 240 238
4 240 242 216 215
4 216 242 239 153
4 182 184 243 235
4 186 245 243 184
4 243 245 237 235
4 237 245 186 183
4 238 239 206 205
4 238 205 246 240
4 206 248 246 205
4 246 248 242 240
4 242 248 206 239
4 188 249 250 189
4 188 189 191 190
4 188 190 251 249
4 191 252 251 190
4 251 252 250 249
4 250 252 191 189
4 176 253 255 177
4 176 194 256 253
4 196 258 256 194
4 256 258 255 253
4 255 258 196 177
4 259 264 266 260
4 259 260 263 261
4 259 261 267 264
4 263 269 267 261
4 267 269 266 264
4 266 269 263 260
4 184 186 202 200
4 184 200 270 243
4 202 273 270 200
4 270 273 245 243
4 245 273 202 186
4 205 206 211 208
4 205 208 274 246
4 211 277 274 208
4 274 277 248 246
4 248 277 211 206
4 190 191 279 278
4 190 278 280 251
4 279 281 280 278
4 280 281 252 251
4 252 281 279 191
4 31 3 4 32
4 31 36 8 3
4 38 9 8 36
4 4 9 38 32
4 33 41 43 34
4 33 39 45 41
4 40 48 45 39
4 43 48 40 34
4 2 12 14 4
4 2 7 17 12
4 9 19 17 7
4 14 19 9 4
4 42 50 51 43
4 42 46 53 50
4 48 55 53 46
4 51 55 48 43
4 85 89 90 86
4 85 87 91 89
4 88 92 91 87
4 90 92 88 86
4 13 283 285 14
4 13 18 120 283
4 19 121 120 18
4 120 121 285 283
4 285 121 19 14
4 49 65 66 51
4 49 52 69 65
4 55 70 69 52
4 66 70 55 51
4 283 24 25 285
4 283 120 28 24
4 121 29 28 120
4 25 29 121 285
4 93 99 100 94
4 93 95 103 99
4 96 104 103 95
4 100 104 96 94
4 286 5 6 287
4 286 287 290 288
4 286 288 291 5
4 290 292 291 288
4 291 292 6 5
4 6 292 290 287
4 37 7 9 38
4 37 38 294 293
4 37 293 114 7
4 294 115 114 293
4 9 115 294 38
4 47 54 55 48
4 47 116 118 54
4 117 119 118 116
4 55 119 117 48
4 59 63 64 60
4 59 134 178 63
4 135 180 178 134
4 178 180 64 63
4 64 180 135 60
4 15 295 296 16
4 15 105 145 295
4 107 147 145 105
4 145 147 296 295
4 296 147 107 16
4 63 71 72 64
4 63 178 130 71
4 180 131 130 178
4 72 131 180 64
4 91 95 96 92
4 91 92 198 197
4 91 197 203 95
4 198 204 203 197
4 203 204 96 95
4 96 204 198 92
4 120 122 112 28
4 123 113 112 122
4 29 113 123 121
4 95 203 138 103
4 204 139 138 203
4 104 139 204 96
4 289 291 292 290
4 289 290 298 297
4 289 297 300 291
4 298 301 300 297
4 300 301 292 291
4 292 301 298 290
4 169 134 135 170
4 169 176 259 134
4 177 260 259 176
4 259 260 135 134
4 135 260 177 170
4 291 105 107 292
4 291 300 140 105
4 301 142 140 300
4 140 142 107 105
4 107 142 301 292
4 114 108 109 115
4 114 160 143 108
4 162 144 143 160
4 109 144 162 115
4 116 163 182 118
4 165 183 182 163
4 119 183 165 117
4 134 259 185 178
4 260 186 185 259
4 180 186 260 135
4 136 197 198 137
4 136 137 263 261
4 136 261 199 197
4 263 202 199 261
4 198 202 263 137
4 106 146 147 107
4 106 141 148 146
4 142 150 148 141
4 147 150 142 107
4 179 130 131 181
4 179 184 205 130
4 186 206 205 184
4 131 206 186 181
4 122 151 157 112
4 153 159 157 151
4 113 159 153 123
4 203 207 278 138
4 210 279 278 207
4 278 279 139 138
4 139 279 210 204
4 221 161 162 222
4 221 224 228 161
4 225 229 228 224
4 162 229 225 222
4 172 164 165 174
4 172 226 230 164
4 227 231 230 226
4 165 231 227 174
4 176 253 264 259
4 255 266 264 253
4 260 266 255 177
4 194 261 263 196
4 194 256 267 261
4 258 269 267 256
4 263 269 258 196
4 300 301 303 302
4 300 302 304 140
4 303 305 304 302
4 304 305 142 140
4 142 305 303 301
4 262 201 202 263
4 262 263 269 268
4 262 268 271 201
4 269 273 271 268
4 271 273 202 201
4 202 273 269 263
4 143 151 153 144
4 143 232 215 151
4 234 216 215 232
4 153 216 234 144
4 200 208 211 202
4 200 270 274 208
4 273 277 274 270
4 211 277 273 202
4 152 158 159 153
4 152 214 219 158
4 216 220 219 214
4 159 220 216 153
4 209 278 279 211
4 209 211 277 275
4 209 275 280 278
4 277 281 280 275
4 279 281 277 211
4 306 30 32 307
4 306 307 1 0
4 306 0 2 30
4 2 4 32 30
4 32 4 1 307
4 286 37 38 287
4 286 5 7 37
4 38 9 6 287
4 288 293 294 290
4 288 291 114 293
4 292 115 114 291
4 294 115 292 290
4 308 224 225 309
4 308 309 303 302
4 308 302 228 224
4 303 229 228 302
4 225 229 303 309
4 291 105 108 114
4 115 109 107 292
4 106 146 122 108
4 122 123 109 108
4 109 123 147 107
4 141 148 151 143
4 144 153 150 142
4 304 233 234 305
4 304 305 213 212
4 304 212 214 233
4 214 216 234 233
4 234 216 213 305
4 310 282 284 311
4 310 311 22 20
4 310 20 23 282
4 22 25 23 20
4 23 25 284 282
4 284 25 22 311
4 149 150 156 155
4 149 155 158 152
4 153 159 156 150
4 31 3 41 33
4 34 43 4 32
4 36 8 45 39
4 40 48 9 38
4 221 161 164 172
4 174 165 162 222
4 7 17 54 47
4 48 55 19 9
4 160 143 182 163
4 165 183 144 162
4 13 283 65 49
4 285 66 65 283
4 51 66 285 14
4 18 120 69 52
4 55 70 121 19
4 108 122 124 118
4 124 125 119 118
4 119 125 123 109
4 232 215 240 235
4 240 242 237 235
4 237 242 216 234
4 283 24 312 65
4 25 313 312 24
4 312 313 66 65
4 66 313 25 285
4 151 157 187 238
4 159 189 187 157
4 187 189 239 238
4 239 189 159 153
4 226 254 255 227
4 226 230 265 254
4 231 266 265 230
4 265 266 255 254
4 255 266 231 227
4 42 50 61 57
4 61 62 58 57
4 58 62 51 43
4 46 53 63 59
4 60 64 55 48
4 230 231 237 236
4 230 236 244 265
4 237 245 244 236
4 244 245 266 265
4 266 245 237 231
4 118 124 130 179
4 181 131 125 119
4 235 240 246 243
4 246 248 245 243
4 245 248 242 237
4 65 312 97 67
4 313 98 97 312
4 97 98 68 67
4 68 98 313 66
4 238 187 190 205
4 190 191 206 205
4 206 191 189 239
4 241 247 248 242
4 241 242 250 249
4 241 249 251 247
4 251 252 248 247
4 248 252 250 242
4 73 77 79 75
4 73 75 58 56
4 73 56 84 77
4 58 86 84 56
4 84 86 79 77
4 79 86 58 75
4 169 134 136 192
4 136 137 193 192
4 193 137 135 170
4 253 264 267 256
4 258 269 266 255
4 57 61 89 85
4 86 90 62 58
4 259 185 199 261
4 263 202 186 260
4 63 71 95 91
4 92 96 72 64
4 178 130 203 197
4 198 204 131 180
4 184 205 208 200
4 202 211 206 186
4 243 246 274 270
4 273 277 248 245
4 67 97 99 93
4 94 100 98 68
4 205 190 278 207
4 210 279 191 206
4 307 32 38 287
4 307 287 6 1
4 4 14 51 43
4 51 66 68 62
4 68 72 64 62
4 64 72 70 55
4 62 68 94 90
4 94 96 92 90
4 38 40 167 294
4 48 117 167 40
4 167 117 115 294
4 19 109 123 121
4 70 125 119 55
4 48 60 135 117
4 119 180 64 55
4 135 180 119 117
4 81 83 193 170
4 81 170 135 60
4 81 60 88 83
4 88 137 193 83
4 292 115 162 301
4 162 144 142 301
4 147 150 156 111
4 147 111 113 123
4 294 167 174 222
4 294 222 162 115
4 117 165 174 167
4 162 229 234 144
4 183 237 231 165
4 231 237 234 229
4 174 177 255 227
4 174 165 260 177
4 231 266 260 165
4 239 242 250 189
4 191 252 248 206
4 260 266 245 186
4 269 273 245 266
