ply
format ascii 1.0
element vertex 120
property float x
property float y
property float z
element face 204
property list uchar int vertex_index
end_header
0.5 0.5 0.25
0.5 0.5 0.25
0.625 0.75 0.25
0.5625 0.75 0.25
0.5 0.5 0.75
0.5 0.5 0.75
0.625 0.75 0.75
0.5625 0.75 0.75
1.66667 0.25 0.25
1.70833 0.25 0.25
1.55556 0.666667 0.333333
1.61111 0.666667 0.333333
1.93333 0.3 0.7
1.96667 0.3 0.7
1.66667 0.75 0.75
1.70833 0.75 0.75
0.86 1.3 0.2
0.78 1.3 0.2
0.741667 1.25 0.75
0.620833 1.25 0.75
1.5 0.8 0.2
1.5 0.8 0.2
1.26667 1.3 0.2
1.28333 1.3 0.2
1.5 1 0.75
1.5 1 0.75
1.41667 1.25 0.75
1.45833 1.25 0.75
0.933333 1.66667 0.333333
0.883333 1.66667 0.333333
0.793333 1.8 0.7
0.746667 1.8 0.7
1.11111 1.66667 0.333333
1.13889 1.66667 0.333333
1.18333 1.8 0.7
1.24167 1.8 0.7
0.7 0.3 1.25
0.7 0.3 1.275
0.75 0.7 1.3
0.725 0.7 1.3
2 0.5 1
1.5 0 1.5
2 0.5 1
1.5 0 1.5
1.83333 0.833333 1.16667
1.83333 0.833333 1.16667
0.604167 1.25 1.25
0.552083 1.25 1.25
1.5 1 1
1 0.5 1.5
1.5 1 1
1 0.5 1.5
1.46667 1.3 1.2
1.48333 1.3 1.2
0.733333 1.8 1.3
0.716667 1.8 1.3
1.21667 1.8 1.3
1.25833 1.8 1.3
1.2 0.2 1.45
1.2 0.2 1.475
1.33333 0.333333 1.66667
1.08333 0.0833333 1.91667
1.2 0.55 1.8
1.2 0.525 1.8
0.7 0.75 1.7
0.7 0.725 1.7
0.714286 1.35714 1.71429
0.714286 1.35714 1.71429
1.66667 1.16667 1.33333
1.66667 1.16667 1.33333
2 1 1.5
1.5 0.5 2
2 1 1.5
1.5 0.5 2
1.8 1.3 1.53333
1.8 1.3 1.51667
0.833333 1.66667 1.66667
0.666667 1.66667 1.83333
0.75 1.66667 1.75
1.5 1.5 1.75
1.25 1.5 1.75
1.16667 1.66667 1.66667
1.33333 1.66667 1.83333
1.25 1.66667 1.75
0.25 0.375 0.25
0.25 0.4375 0.25
0.25 0.375 0.75
0.25 0.4375 0.75
0.3 0.25 1.3
0.3 0.275 1.3
1.55 0.2 1.8
1.525 0.2 1.8
1.5 0.25 0
1.5 0.25 0
0.3 0.7 1.75
0.3 0.7 1.725
0.25 1.25 1.60417
0.25 1.25 1.55208
0.3 1.8 1.73333
0.3 1.8 1.71667
1.7 1.8 1.78333
1.7 1.8 1.74167
0.125 0.875 0.25
0.125 0.875 0.75
0.125 1.25 0.25
0.125 1.25 0.75
1.75 1.25 0.25
1.75 1.25 0.75
0.25 1.75 0.25
0.25 1.75 0.75
1.83333 1.83333 0.0833333
1.83333 1.83333 0.125
1.91667 1.83333 0.916667
0.0833333 0.916667 1.08333
0.0833333 1.16667 1.08333
0.25 1.75 1.25
1.91667 1.83333 1.08333
0.25 0.3 1.7
0.275 0.3 1.7
0.916667 0.0833333 1.91667
4 1 5 4 0
4 1 0 2 3
4 1 3 7 5
4 2 6 7 3
4 7 6 4 5
4 4 6 2 0
4 8 12 13 9
4 8 9 11 10
4 8 10 14 12
4 11 15 14 10
4 14 15 13 12
4 13 15 11 9
4 3 2 16 17
4 3 17 19 7
4 16 18 19 17
4 19 18 6 7
4 6 18 16 2
4 20 24 25 21
4 20 21 23 22
4 20 22 26 24
4 23 27 26 22
4 26 27 25 24
4 25 27 23 21
4 17 16 28 29
4 17 29 31 19
4 28 30 31 29
4 31 30 18 19
4 18 30 28 16
4 22 23 33 32
4 22 32 34 26
4 33 35 34 32
4 34 35 27 26
4 27 35 33 23
4 5 37 36 4
4 5 7 39 37
4 6 38 39 7
4 39 38 36 37
4 36 38 6 4
4 12 40 42 13
4 12 14 44 40
4 15 45 44 14
4 44 45 42 40
4 42 45 15 13
4 7 19 47 39
4 18 46 47 19
4 47 46 38 39
4 38 46 18 6
4 24 48 50 25
4 24 26 52 48
4 27 53 52 26
4 52 53 50 48
4 50 53 27 25
4 19 31 55 47
4 30 54 55 31
4 55 54 46 47
4 46 54 30 18
4 26 34 56 52
4 35 57 56 34
4 56 57 53 52
4 53 57 35 27
4 59 61 60 58
4 59 58 49 51
4 59 51 63 61
4 49 62 63 51
4 63 62 60 61
4 60 62 49 58
4 39 65 64 38
4 39 47 67 65
4 46 66 67 47
4 67 66 64 65
4 64 66 46 38
4 44 70 72 45
4 44 45 69 68
4 44 68 74 70
4 69 75 74 68
4 74 75 72 70
4 72 75 69 45
4 47 55 78 67
4 54 76 78 55
4 78 76 66 67
4 66 76 54 46
4 52 79 80 53
4 52 56 81 79
4 57 83 81 56
4 81 83 80 79
4 80 83 57 53
4 84 0 1 85
4 84 85 87 86
4 84 86 4 0
4 87 5 4 86
4 1 5 87 85
4 28 32 33 29
4 28 30 34 32
4 31 35 34 30
4 33 35 31 29
4 20 10 11 21
4 20 24 14 10
4 25 15 14 24
4 11 15 25 21
4 86 87 89 88
4 86 88 36 4
4 89 37 36 88
4 5 37 89 87
4 24 48 44 14
4 50 45 44 48
4 15 45 50 25
4 39 51 49 38
4 39 65 63 51
4 64 62 63 65
4 49 62 64 38
4 54 56 57 55
4 54 76 81 56
4 78 83 81 76
4 57 83 78 55
4 59 43 41 58
4 59 61 91 43
4 60 90 91 61
4 91 90 41 43
4 41 90 60 58
4 52 68 69 53
4 52 79 74 68
4 80 75 74 79
4 69 75 80 53
4 36 37 59 58
4 36 58 49 38
4 39 51 59 37
4 93 21 20 92
4 93 92 8 9
4 93 9 11 21
4 20 10 8 92
4 60 90 71 62
4 91 73 71 90
4 71 73 63 62
4 63 73 91 61
4 95 97 96 94
4 95 94 64 65
4 95 65 67 97
4 67 66 96 97
4 96 66 64 94
4 50 45 69 53
4 52 68 44 48
4 97 99 98 96
4 97 67 78 99
4 66 77 78 67
4 78 77 98 99
4 98 77 66 96
4 17 16 22 23
4 17 23 33 29
4 28 32 22 16
4 66 67 80 79
4 66 79 81 76
4 78 83 80 67
4 80 83 82 79
4 80 75 101 83
4 74 100 101 75
4 101 100 82 83
4 82 100 74 79
4 85 102 103 87
4 85 1 3 102
4 3 7 103 102
4 103 7 5 87
4 102 104 105 103
4 102 3 17 104
4 17 19 105 104
4 105 19 7 103
4 21 11 106 23
4 15 107 106 11
4 106 107 27 23
4 27 107 15 25
4 104 108 109 105
4 104 17 29 108
4 29 31 109 108
4 109 31 19 105
4 23 106 111 33
4 107 112 111 106
4 111 112 35 33
4 35 112 107 27
4 87 103 113 89
4 7 39 113 103
4 113 39 37 89
4 103 105 114 113
4 19 47 114 105
4 114 47 39 113
4 45 69 107 15
4 107 69 53 27
4 105 109 115 114
4 31 55 115 109
4 115 55 47 114
4 69 116 112 107
4 112 116 57 35
4 57 116 69 53
4 89 113 95 118
4 89 118 119 37
4 119 65 39 37
4 39 65 95 113
4 95 65 119 118
4 37 119 61 59
4 65 63 61 119
4 113 114 97 95
4 47 67 97 114
4 114 115 99 97
4 55 78 99 115
4 75 101 116 69
4 116 101 83 57
