ply
format ascii 1.0
element vertex 152
property float x
property float y
property float z
element face 250
property list uchar int vertex_index
end_header
1.45833 0.25 1.45833
1.29167 0.25 1.29167
1.45833 0.75 1.45833
1.29167 0.75 1.29167
1.41667 0.25 1.75
1.08333 0.25 1.75
1.41667 0.75 1.75
1.08333 0.75 1.75
1.28333 1.28333 1.45
1.21667 1.21667 1.25
1.20833 1.20833 1.75
1.04167 1.04167 1.75
1.71667 1.71667 1.45
1.78333 1.78333 1.25
1.54167 2.25 1.45833
1.70833 2.25 1.29167
1.79167 1.79167 1.75
1.95833 1.95833 1.75
1.58333 2.25 1.75
1.91667 2.25 1.75
1.54167 2.75 1.45833
1.70833 2.75 1.29167
1.58333 2.75 1.75
1.91667 2.75 1.75
1.41667 0.25 2.25
1.08333 0.25 2.25
1.41667 0.75 2.25
1.08333 0.75 2.25
1.20833 1.20833 2.25
1.04167 1.04167 2.25
1.79167 1.79167 2.25
1.95833 1.95833 2.25
1.58333 2.25 2.25
1.91667 2.25 2.25
1.58333 2.75 2.25
1.91667 2.75 2.25
1.45833 0.25 2.54167
1.29167 0.25 2.70833
1.45833 0.75 2.54167
1.29167 0.75 2.70833
1.28333 1.28333 2.55
1.21667 1.21667 2.75
1.71667 1.71667 2.55
1.78333 1.78333 2.75
1.54167 2.25 2.54167
1.70833 2.25 2.70833
1.54167 2.75 2.54167
1.70833 2.75 2.70833
0.25 1.45833 1.45833
0.25 1.29167 1.29167
0.25 1.41667 1.75
0.25 1.08333 1.75
0.75 1.45833 1.45833
0.75 1.29167 1.29167
0.75 1.41667 1.75
0.75 1.08333 1.75
2.25 1.54167 1.45833
2.25 1.70833 1.29167
2.25 1.58333 1.75
2.25 1.91667 1.75
2.75 1.54167 1.45833
2.75 1.70833 1.29167
2.75 1.58333 1.75
2.75 1.91667 1.75
0.25 1.41667 2.25
0.25 1.08333 2.25
0.75 1.41667 2.25
0.75 1.08333 2.25
2.25 1.58333 2.25
2.25 1.91667 2.25
2.75 1.58333 2.25
2.75 1.91667 2.25
0.25 1.45833 2.54167
0.25 1.29167 2.70833
0.75 1.45833 2.54167
0.75 1.29167 2.70833
2.25 1.54167 2.54167
2.25 1.70833 2.70833
2.75 1.54167 2.54167
2.75 1.70833 2.70833
1.75 0.25 1.41667
1.75 0.25 1.08333
1.75 0.75 1.41667
1.75 0.75 1.08333
1.75 0.25 2.58333
1.75 0.25 2.91667
1.75 0.75 2.58333
1.75 0.75 2.91667
2.25 0.25 1.41667
2.25 0.25 1.08333
2.25 0.75 1.41667
2.25 0.75 1.08333
2.25 0.25 2.58333
2.25 0.25 2.91667
2.25 0.75 2.58333
2.25 0.75 2.91667
2.75 0.25 1.41667
2.75 0.25 1.08333
2.75 0.75 1.41667
2.75 0.75 1.08333
2.75 0.25 2.58333
2.75 0.25 2.91667
2.75 0.75 2.58333
2.75 0.75 2.91667
1.75 1.25 1.41667
1.75 1.25 1.08333
1.75 1.25 2.58333
1.75 1.25 2.91667
2.25 1.25 1.41667
2.25 1.25 1.08333
2.25 1.25 2.58333
2.25 1.25 2.91667
2.75 1.25 1.41667
2.75 1.25 1.08333
2.75 1.25 2.58333
2.75 1.25 2.91667
0.25 1.75 1.41667
0.25 1.75 1.08333
0.75 1.75 1.41667
0.75 1.75 1.08333
0.25 1.75 2.58333
0.25 1.75 2.91667
0.75 1.75 2.58333
0.75 1.75 2.91667
1.25 1.75 1.41667
1.25 1.75 1.08333
1.25 1.75 2.58333
1.25 1.75 2.91667
0.25 2.25 1.41667
0.25 2.25 1.08333
0.75 2.25 1.41667
0.75 2.25 1.08333
0.25 2.25 2.58333
0.25 2.25 2.91667
0.75 2.25 2.58333
0.75 2.25 2.91667
1.25 2.25 1.41667
1.25 2.25 1.08333
1.25 2.25 2.58333
1.25 2.25 2.91667
0.25 2.75 1.41667
0.25 2.75 1.08333
0.75 2.75 1.41667
0.75 2.75 1.08333
0.25 2.75 2.58333
0.25 2.75 2.91667
0.75 2.75 2.58333
0.75 2.75 2.91667
1.25 2.75 1.41667
1.25 2.75 1.08333
1.25 2.75 2.58333
1.25 2.75 2.91667
4 1 5 4 0
4 1 0 2 3
4 1 3 7 5
4 2 6 7 3
4 7 6 4 5
4 4 6 2 0
4 3 2 8 9
4 3 9 11 7
4 8 10 11 9
4 11 10 6 7
4 6 10 8 2
4 13 17 16 12
4 13 12 14 15
4 13 15 19 17
4 14 18 19 15
4 19 18 16 17
4 16 18 14 12
4 15 14 20 21
4 15 21 23 19
4 20 22 23 21
4 23 22 18 19
4 18 22 20 14
4 5 25 24 4
4 5 7 27 25
4 6 26 27 7
4 27 26 24 25
4 24 26 6 4
4 7 11 29 27
4 10 28 29 11
4 29 28 26 27
4 26 28 10 6
4 17 31 30 16
4 17 19 33 31
4 18 32 33 19
4 33 32 30 31
4 30 32 18 16
4 19 23 35 33
4 22 34 35 23
4 35 34 32 33
4 32 34 22 18
4 25 37 36 24
4 25 27 39 37
4 26 38 39 27
4 39 38 36 37
4 36 38 26 24
4 27 29 41 39
4 28 40 41 29
4 41 40 38 39
4 38 40 28 26
4 31 43 42 30
4 31 33 45 43
4 32 44 45 33
4 45 44 42 43
4 42 44 32 30
4 33 35 47 45
4 34 46 47 35
4 47 46 44 45
4 44 46 34 32
4 49 53 52 48
4 49 48 50 51
4 49 51 55 53
4 50 54 55 51
4 55 54 52 53
4 52 54 50 48
4 53 9 8 52
4 53 55 11 9
4 54 10 11 55
4 8 10 54 52
4 13 57 56 12
4 13 17 59 57
4 16 58 59 17
4 59 58 56 57
4 56 58 16 12
4 57 61 60 56
4 57 59 63 61
4 58 62 63 59
4 63 62 60 61
4 60 62 58 56
4 51 50 64 65
4 51 65 67 55
4 64 66 67 65
4 67 66 54 55
4 54 66 64 50
4 55 67 29 11
4 66 28 29 67
4 10 28 66 54
4 17 31 69 59
4 30 68 69 31
4 69 68 58 59
4 58 68 30 16
4 59 69 71 63
4 68 70 71 69
4 71 70 62 63
4 62 70 68 58
4 65 64 72 73
4 65 73 75 67
4 72 74 75 73
4 75 74 66 67
4 66 74 72 64
4 67 75 41 29
4 74 40 41 75
4 28 40 74 66
4 31 43 77 69
4 42 76 77 43
4 77 76 68 69
4 68 76 42 30
4 69 77 79 71
4 76 78 79 77
4 79 78 70 71
4 70 78 76 68
4 1 0 80 81
4 1 81 83 3
4 80 82 83 81
4 83 82 2 3
4 2 82 80 0
4 37 36 84 85
4 37 85 87 39
4 84 86 87 85
4 87 86 38 39
4 38 86 84 36
4 81 80 88 89
4 81 89 91 83
4 88 90 91 89
4 91 90 82 83
4 82 90 88 80
4 85 84 92 93
4 85 93 95 87
4 92 94 95 93
4 95 94 86 87
4 86 94 92 84
4 89 88 96 97
4 89 97 99 91
4 96 98 99 97
4 99 98 90 91
4 90 98 96 88
4 93 92 100 101
4 93 101 103 95
4 100 102 103 101
4 103 102 94 95
4 94 102 100 92
4 3 83 105 9
4 82 104 105 83
4 105 104 8 9
4 8 104 82 2
4 39 87 107 41
4 86 106 107 87
4 107 106 40 41
4 40 106 86 38
4 83 91 109 105
4 90 108 109 91
4 109 108 104 105
4 104 108 90 82
4 87 95 111 107
4 94 110 111 95
4 111 110 106 107
4 106 110 94 86
4 91 99 113 109
4 98 112 113 99
4 113 112 108 109
4 108 112 98 90
4 95 103 115 111
4 102 114 115 103
4 115 114 110 111
4 110 114 102 94
4 49 117 116 48
4 49 53 119 117
4 52 118 119 53
4 119 118 116 117
4 116 118 52 48
4 73 121 120 72
4 73 75 123 121
4 74 122 123 75
4 123 122 120 121
4 120 122 74 72
4 53 9 125 119
4 8 124 125 9
4 125 124 118 119
4 118 124 8 52
4 75 41 127 123
4 40 126 127 41
4 127 126 122 123
4 122 126 40 74
4 9 105 13 125
4 104 12 13 105
4 13 12 124 125
4 124 12 104 8
4 41 107 43 127
4 106 42 43 107
4 43 42 126 127
4 126 42 106 40
4 105 109 57 13
4 108 56 57 109
4 12 56 108 104
4 107 111 77 43
4 110 76 77 111
4 42 76 110 106
4 109 113 61 57
4 112 60 61 113
4 56 60 112 108
4 111 115 79 77
4 114 78 79 115
4 76 78 114 110
4 117 129 128 116
4 117 119 131 129
4 118 130 131 119
4 131 130 128 129
4 128 130 118 116
4 121 133 132 120
4 121 123 135 133
4 122 134 135 123
4 135 134 132 133
4 132 134 122 120
4 119 125 137 131
4 124 136 137 125
4 137 136 130 131
4 130 136 124 118
4 123 127 139 135
4 126 138 139 127
4 139 138 134 135
4 134 138 126 122
4 125 13 15 137
4 15 14 136 137
4 136 14 12 124
4 127 43 45 139
4 45 44 138 139
4 138 44 42 126
4 129 141 140 128
4 129 131 143 141
4 130 142 143 131
4 143 142 140 141
4 140 142 130 128
4 133 145 144 132
4 133 135 147 145
4 134 146 147 135
4 147 146 144 145
4 144 146 134 132
4 131 137 149 143
4 136 148 149 137
4 149 148 142 143
4 142 148 136 130
4 135 139 151 147
4 138 150 151 139
4 151 150 146 147
4 146 150 138 134
4 137 15 21 149
4 21 20 148 149
4 148 20 14 136
4 139 45 47 151
4 47 46 150 151
4 150 46 44 138
